<svg xmlns="http://www.w3.org/2000/svg" viewBox="0 0 1231.75 257.09"><defs><style>.cls-1{fill:#494948;}.cls-2{fill:#282828;}.cls-3,.cls-6,.cls-8{fill:#fac96d;}.cls-10,.cls-4{fill:#fff;}.cls-5{fill:#4ed1f4;}.cls-10,.cls-6{font-size:100px;}.cls-10,.cls-6,.cls-8,.cls-9{font-family:Montserrat-Bold, Montserrat;font-weight:700;}.cls-7{letter-spacing:0em;}.cls-8,.cls-9{font-size:125px;}.cls-11{letter-spacing:-0.02em;}.cls-12{letter-spacing:0em;}.cls-13{letter-spacing:-0.01em;}.cls-14{letter-spacing:-0.02em;}.cls-15{letter-spacing:-0.01em;}</style></defs><title>large-logo</title><g id="Layer_3" data-name="Layer 3"><rect class="cls-1" x="176.4" y="12.73" width="32.95" height="8" transform="translate(161.43 207.77) rotate(-85.61)"/><rect class="cls-1" x="85.73" y="37.77" width="8" height="32.95" transform="translate(-4.77 99.67) rotate(-56.83)"/><path class="cls-2" d="M157.93,55.78c-.24-.34-25.05-34.06-37.27-39-7.12-2.89-31.43,1.12-31.68,1.17l-.33-2c1-.17,25.13-4.15,32.77-1,12.74,5.18,37.1,38.29,38.13,39.7Z"/><polygon points="254.8 131.45 251.44 129.28 278.88 86.75 215.6 57.88 217.26 54.24 284.74 85.03 254.8 131.45"/><polygon class="cls-3" points="245.39 198.43 158.77 226.33 84.83 65.24 212.38 24.16 245.39 198.43"/><polygon class="cls-4" points="226.46 98.5 116.37 133.96 99.15 96.43 218.77 57.91 226.46 98.5"/><path class="cls-1" d="M247.57,150.32l-11-7.58,10.06-19.19s4.59,5.46,6.52,6.82,8.73,3.86,8.73,3.86Z"/><polygon points="65.67 109.33 31.15 71.62 19.57 69.78 20.2 65.83 33.16 67.89 66.86 104.71 98.39 94.17 99.66 97.96 65.67 109.33"/><path class="cls-1" d="M0,67.92,4,55.15l21.3,4s-3.87,6-4.6,8.23-1.13,9.48-1.13,9.48Z"/><rect class="cls-1" x="199" y="204.52" width="8" height="18.81" transform="translate(-55.8 72.52) rotate(-17.85)"/><path d="M219.88,254.45l-6.39,2.06a12,12,0,0,1-15.1-7.74L192.33,230a12,12,0,0,1,7.74-15.1l6.4-2.06a12,12,0,0,1,15.1,7.74l6.05,18.8A12,12,0,0,1,219.88,254.45Z"/><polygon class="cls-2" points="186.99 133.07 168.8 138.93 153.27 105.1 180.06 96.47 186.99 133.07"/><path class="cls-1" d="M183.2,130.56l-12.73,4.1-9-19.69s7.13-.29,9.38-1,8.39-4.55,8.39-4.55Z"/><polygon class="cls-1" points="188.4 103.74 149.6 116.24 119.58 53.79 177.71 35.07 188.4 103.74"/><polygon class="cls-2" points="186.18 104.46 152.4 115.33 123.56 52.51 173.31 36.49 186.18 104.46"/><path class="cls-2" d="M174.49,68.38a17.38,17.38,0,1,1-21.87-11.22A17.38,17.38,0,0,1,174.49,68.38Z"/><path class="cls-5" d="M172.75,69a15.65,15.65,0,1,1-19.69-10.1A15.63,15.63,0,0,1,172.75,69Z"/><polygon class="cls-2" points="245.39 198.43 158.77 226.33 150.33 207.95 241.62 178.55 245.39 198.43"/><polygon class="cls-2" points="218.75 177.28 169.01 193.3 159.26 163.05 163.07 146.35 196.16 135.68 208.83 146.46 218.75 177.28"/><text class="cls-6" transform="translate(304.33 106.53)">BORDERLAN<tspan class="cls-7" x="652.19" y="0">D</tspan><tspan x="728.69" y="0">S </tspan></text><text class="cls-8" transform="translate(1123.13 106.53)">2</text><text class="cls-9" transform="translate(1198.75 106.53)"> </text><text class="cls-10" transform="translate(304.33 226.53)"><tspan class="cls-11">L</tspan><tspan class="cls-12" x="55" y="0">O</tspan><tspan class="cls-11" x="137.6" y="0">O</tspan><tspan class="cls-13" x="218.4" y="0">T</tspan><tspan x="278.7" y="0">SP</tspan><tspan class="cls-14" x="410.19" y="0">L</tspan><tspan class="cls-15" x="465.19" y="0">O</tspan><tspan x="547.29" y="0">SION!!!</tspan></text></g></svg>